<svg xmlns="http://www.w3.org/2000/svg" version="1.1" xmlns:xlink="http://www.w3.org/1999/xlink" width="512" height="512" x="0" y="0" viewBox="0 0 24 24" style="enable-background:new 0 0 512 512" xml:space="preserve"><g><path d="M1.5 4a2 2 0 1 1 3.999-.001A2 2 0 0 1 1.5 4Zm19 2a2 2 0 1 0 .001-3.999A2 2 0 0 0 20.5 6ZM12 4a2 2 0 1 0 .001-3.999A2 2 0 0 0 12 4Zm7.829 14.753L14 16.461v-5.355c0-.996-.681-1.92-1.664-2.08A2.001 2.001 0 0 0 10 10.999v9.817a232.093 232.093 0 0 1-2.145-1.784 2.292 2.292 0 0 0-3.235.109 2.288 2.288 0 0 0 .098 3.23l1.821 1.628h16.462v-.593a5 5 0 0 0-3.171-4.653ZM12 5c-1.688 0-3.104.979-3.482 2.296-.103.36.248.704.69.704h5.584c.442 0 .793-.344.69-.704C15.104 5.979 13.688 5 12 5ZM3.5 7C1.812 7 .396 7.979.018 9.296c-.103.36.248.704.69.704h5.584c.442 0 .793-.344.69-.704C6.604 7.979 5.188 7 3.5 7Zm17 0c-1.688 0-3.104.979-3.482 2.296-.103.36.248.704.69.704h5.584c.442 0 .793-.344.69-.704C23.604 7.979 22.188 7 20.5 7Z" fill="#2563eb" opacity="1" data-original="#000000"></path></g></svg>