<svg xmlns="http://www.w3.org/2000/svg" version="1.1" xmlns:xlink="http://www.w3.org/1999/xlink" width="512" height="512" x="0" y="0" viewBox="0 0 24 24" style="enable-background:new 0 0 512 512" xml:space="preserve"><g><path d="M17.54 22.065a7.139 7.139 0 0 0 4.459-4.492c1.231-3.699 1.231-7.449 0-11.146a7.143 7.143 0 0 0-4.459-4.492c-3.676-1.243-7.404-1.243-11.08 0a7.139 7.139 0 0 0-4.459 4.492c-.616 1.849-.923 3.711-.923 5.573s.308 3.725.923 5.573a7.143 7.143 0 0 0 4.459 4.492c3.676 1.243 7.404 1.243 11.08 0Zm-6.296-6.431c-2.626-1.316-3.368-3.078-3.443-3.274a1.016 1.016 0 0 1 0-.72c.076-.196.817-1.958 3.443-3.274a1 1 0 1 1 .896 1.787 7.048 7.048 0 0 0-1.322.847h4.448a1 1 0 1 1 0 2h-4.45c.342.28.777.574 1.325.849a1 1 0 1 1-.896 1.787Z" fill="#2563eb" opacity="1" data-original="#000000"></path></g></svg>