<svg xmlns="http://www.w3.org/2000/svg" version="1.1" xmlns:xlink="http://www.w3.org/1999/xlink" width="512" height="512" x="0" y="0" viewBox="0 0 24 24" style="enable-background:new 0 0 512 512" xml:space="preserve" class=""><g><path d="M8 12c-3.309 0-6-2.691-6-6s2.691-6 6-6 6 2.691 6 6-2.691 6-6 6Zm-8 6.5V24h7V14H4.5A4.5 4.5 0 0 0 0 18.5ZM24 15v9H9v-9a3 3 0 0 1 3-3h9a3 3 0 0 1 3 3Zm-8 1.5a2.5 2.5 0 1 0-5 0v3a2.5 2.5 0 1 0 5 0V19h-1.6v.5c0 .496-.404.9-.9.9s-.9-.404-.9-.9v-3c0-.496.404-.9.9-.9s.9.404.9.9v.5H16v-.5Zm6.25-2.244h-1.632l-1.182 5.864a.925.925 0 0 1-.057.188.664.664 0 0 1-.05-.159l-1.202-5.893h-1.633l1.268 6.213c.108.561.592 1.531 1.618 1.531s1.503-.928 1.628-1.575l1.244-6.169Z" fill="#2563eb" opacity="1" data-original="#000000" class=""></path></g></svg>