<svg xmlns="http://www.w3.org/2000/svg" version="1.1" xmlns:xlink="http://www.w3.org/1999/xlink" width="512" height="512" x="0" y="0" viewBox="0 0 24 24" style="enable-background:new 0 0 512 512" xml:space="preserve"><g><path d="M21.001 2.815a1.062 1.062 0 0 0-.804-.806c-3.01-.668-5.796-1.008-8.196-1.008s-5.186.34-8.196 1.008a1.06 1.06 0 0 0-.804.806c-.661 3.093-1 6.216-1 9.185s.338 6.092.999 9.185c.085.399.405.718.804.806 3.01.668 5.796 1.008 8.197 1.008.492 0 1.004-.018 1.527-.047-.129-4.393.355-6.688.376-6.784.087-.396.404-.7.804-.771.124-.021 2.458-.424 5.381-.424.578 0 1.183.024 1.795.061.071-1.03.117-2.068.117-3.036 0-2.97-.338-6.092-.999-9.185zM8.12 9.769c.469 0 .627-.146.728-.304a.631.631 0 0 1 1.065.677c-.375.59-.978.889-1.792.889C5.87 11.031 5.87 8.75 5.87 8s0-3.031 2.251-3.031c.814 0 1.417.299 1.792.889a.63.63 0 1 1-1.065.677c-.101-.158-.258-.304-.728-.304-.464 0-.989 0-.989 1.769s.525 1.769.989 1.769zm5.473.965a.632.632 0 0 1-1.066 0c-.057-.089-1.386-2.213-1.538-5.105a.632.632 0 0 1 1.261-.065c.073 1.399.467 2.612.81 3.423.343-.812.737-2.024.81-3.423a.632.632 0 0 1 1.261.065c-.151 2.892-1.481 5.017-1.538 5.105zm7.695 6.267c-1.202 1.215-4.177 4.109-5.389 5.304a2.06 2.06 0 0 1-.383.287c-.061-2.634.109-4.431.232-5.326 1.062-.141 3.211-.365 5.54-.265z" fill="#2563eb" opacity="1" data-original="#000000"></path></g></svg>