<svg xmlns="http://www.w3.org/2000/svg" version="1.1" xmlns:xlink="http://www.w3.org/1999/xlink" width="512" height="512" x="0" y="0" viewBox="0 0 24 24" style="enable-background:new 0 0 512 512" xml:space="preserve"><g><path d="M8 12c-3.309 0-6-2.691-6-6s2.691-6 6-6 6 2.691 6 6-2.691 6-6 6ZM7 24V14H4.5A4.505 4.505 0 0 0 0 18.5V24h7Zm13.4-7.231c0-.496-.404-.9-.9-.9h-.9v1.8h.9c.496 0 .9-.404.9-.9ZM21 12h-9a3 3 0 0 0-3 3v9h15v-9c0-1.349-1.343-3-3-3Zm-5 10h-1.6v-3.205h-1.8V22H11v-8h1.6v3.195h1.8V14H16v8Zm4.988-3.491-.042.029L22 22h-1.744l-.872-3H18.6v3H17v-8h2.5a2.5 2.5 0 0 1 2.5 2.5c0 .846-.423 1.592-1.067 2.044.024-.014.036-.023.055-.035Z" fill="#2563eb" opacity="1" data-original="#000000"></path></g></svg>