<svg xmlns="http://www.w3.org/2000/svg" version="1.1" xmlns:xlink="http://www.w3.org/1999/xlink" width="512" height="512" x="0" y="0" viewBox="0 0 24 24" style="enable-background:new 0 0 512 512" xml:space="preserve" class=""><g transform="matrix(1.0000000000000002,-2.4492935982947064e-16,2.4492935982947064e-16,1.0000000000000002,0,1.7763568394002505e-15)"><path d="M19 24h-6c-2.757 0-5-2.243-5-5v-6c0-2.757 2.243-5 5-5h6c2.757 0 5 2.243 5 5v6c0 2.757-2.243 5-5 5ZM5 16c-2.757 0-5-2.243-5-5V5c0-2.757 2.243-5 5-5h6c2.757 0 5 2.243 5 5a1 1 0 0 1-1 1h-2c-3.86 0-7 3.141-7 7v2a1 1 0 0 1-1 1Z" fill="#2563eb" opacity="1" data-original="#000000" class=""></path></g></svg>