<svg xmlns="http://www.w3.org/2000/svg" version="1.1" xmlns:xlink="http://www.w3.org/1999/xlink" width="512" height="512" x="0" y="0" viewBox="0 0 24 24" style="enable-background:new 0 0 512 512" xml:space="preserve" class=""><g><path d="M16.985 1c-4.149 0-6 1.851-6 6s1.851 6 6 6 6-1.851 6-6-1.851-6-6-6zm2.767 5.773a16.062 16.062 0 0 1-2.667 2.526.999.999 0 0 1-1.2 0 16.288 16.288 0 0 1-1.599-1.373 1 1 0 1 1 1.398-1.43c.258.252.525.495.801.727a13.992 13.992 0 0 0 1.733-1.735 1 1 0 0 1 1.533 1.285zm3.202 11.408c.066.339.065.593.057.725-.011 1.109-.364 1.982-1.105 2.635-1.338 1.037-3.603 1.46-7.817 1.46-2.63 0-6.027-.35-8.166-1.112 1.005-.251 2.063-1.011 2.063-3.102a9.16 9.16 0 0 0-.11-1.303c2.144.242 4.863.517 7.661.517 2.137.004 4.307-.273 6.246-.612l.035-.005a1.002 1.002 0 0 1 1.137.798zm-16.969.605c0 .855-.327 1.214-1.02 1.214-.686 0-1.063-.162-1.326-1.049-.26-1.674.12-4.421.496-7.097.104-.922.244-1.728.379-2.507.242-1.398.471-2.72.471-4.347 0-.794-.206-1-1-1-.39 0-.675.07-.803.199s-.198.412-.197.798c0 .866.179 2.721.179 2.721s-.315.159-.857.263a.998.998 0 0 1-1.172-.791C1.06 6.804.985 5.928.985 5c.004-1.175.374-2.018 1.229-2.564C4.19 1.147 8.985 1 11.011 1h.053C9.692 2.346 8.985 4.357 8.985 6.999c0 5.233 2.767 8 8 8 .629 0 1.221-.042 1.779-.122-.036.316-.079.642-.107.944-.991.108-2.001.178-2.995.178-3.358-.002-6.357-.367-8.887-.655-.643-.092-1.234.539-1.096 1.177.124.734.294 1.447.306 2.265z" fill="#2563eb" opacity="1" data-original="#000000" class=""></path></g></svg>