<svg xmlns="http://www.w3.org/2000/svg" version="1.1" xmlns:xlink="http://www.w3.org/1999/xlink" width="512" height="512" x="0" y="0" viewBox="0 0 24 24" style="enable-background:new 0 0 512 512" xml:space="preserve" class=""><g><path d="M15 10v6c0 .551-.448 1-1 1h-4c-.552 0-1-.449-1-1v-6h6Zm-2-3h-2v1h2V7Zm11 5c0 6.617-5.383 12-12 12S0 18.617 0 12 5.383 0 12 0s12 5.383 12 12Zm-6-3a1 1 0 0 0-1-1h-2V7c0-1.103-.897-2-2-2h-2c-1.103 0-2 .897-2 2v1H7a1 1 0 1 0 0 2v6c0 1.654 1.346 3 3 3h4c1.654 0 3-1.346 3-3v-6a1 1 0 0 0 1-1Z" fill="#2563eb" opacity="1" data-original="#000000"></path></g></svg>