<svg xmlns="http://www.w3.org/2000/svg" version="1.1" xmlns:xlink="http://www.w3.org/1999/xlink" width="512" height="512" x="0" y="0" viewBox="0 0 24 24" style="enable-background:new 0 0 512 512" xml:space="preserve" class=""><g><path d="M24 12c0 6.617-5.383 12-12 12-1.166 0-2.319-.167-3.428-.496l.569-1.918a10.05 10.05 0 0 0 2.858.414c5.514 0 10-4.486 10-10S17.514 2 12 2c-.973 0-1.934.14-2.858.414L8.573.496A12.044 12.044 0 0 1 12.001 0c6.617 0 12 5.383 12 12Zm-13 6h2V8.889l2.892 2.826 1.397-1.43-3.718-3.634c-.84-.84-2.312-.832-3.134-.008l-3.726 3.642 1.397 1.43L11 8.89v9.111ZM2.892 4.187 4.41 5.49a10.075 10.075 0 0 1 2.146-1.879L5.464 1.935a12.086 12.086 0 0 0-2.571 2.252ZM.119 10.304l1.98.279a9.924 9.924 0 0 1 .792-2.718l-1.82-.828a11.937 11.937 0 0 0-.952 3.267Zm0 3.392c.16 1.129.48 2.229.952 3.267l1.82-.828a9.913 9.913 0 0 1-.792-2.718l-1.98.279Zm4.299 4.824-1.516 1.305a12.035 12.035 0 0 0 2.562 2.24l1.091-1.676a10.106 10.106 0 0 1-2.137-1.869Z" fill="#2563eb" opacity="1" data-original="#000000" class=""></path></g></svg>