<svg xmlns="http://www.w3.org/2000/svg" version="1.1" xmlns:xlink="http://www.w3.org/1999/xlink" width="512" height="512" x="0" y="0" viewBox="0 0 24 24" style="enable-background:new 0 0 512 512" xml:space="preserve" class=""><g><path d="M19 4h-1.101A5.009 5.009 0 0 0 13 0h-2a5.01 5.01 0 0 0-4.899 4H5C2.243 4 0 6.243 0 9v10c0 2.757 2.243 5 5 5h14c2.757 0 5-2.243 5-5V9c0-2.757-2.243-5-5-5zm-8-2h2c1.304 0 2.416.836 2.829 2H8.172a3.006 3.006 0 0 1 2.829-2zm2 17v1a1 1 0 1 1-2 0v-1h-.268a3.01 3.01 0 0 1-2.598-1.499 1 1 0 0 1 1.731-1.002c.179.31.511.501.867.501H13c.551 0 1-.448 1-1a.77.77 0 0 0-.644-.761l-3.041-.506A2.763 2.763 0 0 1 8 12c0-1.654 1.346-3 3-3V8a1 1 0 1 1 2 0v1h.268a3.01 3.01 0 0 1 2.598 1.499 1 1 0 0 1-1.731 1.002 1.003 1.003 0 0 0-.867-.501H11c-.551 0-1 .448-1 1a.77.77 0 0 0 .644.761l3.041.506A2.763 2.763 0 0 1 16 16c0 1.654-1.346 3-3 3z" fill="#2563eb" opacity="1" data-original="#000000" class=""></path></g></svg>