<svg xmlns="http://www.w3.org/2000/svg" version="1.1" xmlns:xlink="http://www.w3.org/1999/xlink" width="512" height="512" x="0" y="0" viewBox="0 0 24 24" style="enable-background:new 0 0 512 512" xml:space="preserve" class=""><g><path d="M12 0C5.373 0 0 5.373 0 12s5.373 12 12 12 12-5.373 12-12S18.627 0 12 0Zm.157 18.863h-.003a7 7 0 0 1-3.352-.854l-3.719.976.996-3.635a7.003 7.003 0 0 1-.937-3.507c.002-3.868 3.148-7.014 7.015-7.014 1.876 0 3.638.731 4.962 2.057a6.973 6.973 0 0 1 2.053 4.963c-.001 3.868-3.149 7.014-7.015 7.014Zm.002-12.85a5.839 5.839 0 0 0-5.833 5.83c0 1.102.308 2.175.891 3.103l.139.221-.589 2.151 2.206-.579.213.126a5.829 5.829 0 0 0 2.968.813h.002a5.838 5.838 0 0 0 5.83-5.83 5.797 5.797 0 0 0-1.706-4.125 5.794 5.794 0 0 0-4.122-1.71Zm3.429 8.337c-.146.41-.846.783-1.183.833a2.41 2.41 0 0 1-1.104-.069 9.959 9.959 0 0 1-.999-.369c-1.758-.759-2.907-2.53-2.994-2.647-.088-.117-.716-.95-.716-1.813s.453-1.287.614-1.462c.161-.175.351-.219.467-.219s.234.001.336.006c.107.006.252-.041.394.301.146.351.497 1.214.541 1.302.044.088.073.19.015.307-.059.117-.088.19-.175.292-.088.102-.184.229-.263.307-.088.087-.179.182-.077.358s.454.749.975 1.214c.67.597 1.234.782 1.41.87.175.088.277.073.38-.044.103-.117.438-.512.555-.687.117-.176.234-.146.395-.088.16.059 1.022.482 1.198.57.175.088.292.131.336.204.044.073.044.424-.102.833Zm0 0" fill="#2563eb" opacity="1" data-original="#000000" class=""></path></g></svg>