<svg id="Layer_1" viewBox="0 0 48 48" xmlns="http://www.w3.org/2000/svg"><path d="m40.062 36h-32.297l-.729 5.471c-.32 2.398 1.546 4.529 3.965 4.529h25.999c2.419 0 4.285-2.131 3.965-4.529l-.902-5.471z" fill="#f6a28d"/><path d="m21.232 24-11.067 3.908c-1.927.68-3.375 2.292-3.844 4.278l-1.266 5.354c-.297 1.256.657 2.46 1.949 2.46h33.993c1.292 0 2.246-1.204 1.949-2.46l-1.266-5.354c-.47-1.986-1.918-3.598-3.844-4.278l-11.067-3.908h-5.536z" fill="#ff8200"/><path d="m8.606 38.056 1.216-5.577c.567-2.598 2.235-4.789 4.528-6.049l-4.185 1.478c-1.927.68-3.375 2.292-3.844 4.278l-1.266 5.354c-.297 1.256.657 2.46 1.949 2.46h2.229c-.514-.472-.791-1.192-.627-1.944z" fill="#ff6500"/><path d="m24 31c1.933 0 3.5-1.567 3.5-3.5v-4.5s-7 0-7 0v4.5c0 1.933 1.567 3.5 3.5 3.5z" fill="#f6a28d"/><rect fill="#eff3f9" height="11" rx="1" width="20" x="14" y="35"/><path d="m34 43h-20v2c0 .552.448 1 1 1h18c.552 0 1-.448 1-1z" fill="#cfe0f3"/><rect fill="#f6a28d" height="8" rx="2.5" width="5" x="11" y="38"/><circle cx="13.5" cy="40.5" fill="#ffcdb4" r="2.5"/><rect fill="#f6a28d" height="8" rx="2.5" width="5" x="32" y="38"/><circle cx="34.5" cy="40.5" fill="#ffcdb4" r="2.5"/><path d="m32.237 17.692 1.575-6.278c.334-1.343.222-2.765-.326-4.044l-.286-.667c-.763-1.772-2.503-2.924-4.433-2.924-1.16-1.16-2.709-1.78-4.298-1.78-.461 0-.914.048-1.367.151l-3.901.906c-1.978.453-3.615 1.827-4.417 3.686l-.27.628c-.548 1.279-.659 2.701-.326 4.044l1.609 6.412 16.44-.135z" fill="#333e54"/><path d="m18 9c0-2.254.68-4.348 1.844-6.092l-.642.149c-1.978.453-3.615 1.827-4.417 3.686l-.27.628c-.548 1.279-.659 2.701-.326 4.044l1.609 6.412 6.587-.054c-2.658-2.008-4.384-5.185-4.384-8.773z" fill="#263244"/><path d="m33 17.5c0-1.341-1.058-2.426-2.383-2.488-.112-.921-.238-1.722-.352-2.36-.171-.957-.998-1.652-1.97-1.652h-8.589c-.972 0-1.799.695-1.97 1.652-.114.638-.24 1.439-.352 2.36-1.326.062-2.383 1.147-2.383 2.488 0 1.235.897 2.254 2.074 2.457v.043c0 3 3.926 6 6.926 6s6.926-3 6.926-6c0-.015 0-.028 0-.043 1.177-.203 2.074-1.222 2.074-2.457z" fill="#ffcdb4"/><path d="m20.282 20.987c-.186-.653-.255-1.334-.203-2.01l.614-7.977h-.987c-.972 0-1.799.695-1.97 1.652-.114.638-.24 1.439-.352 2.36-1.326.062-2.383 1.147-2.383 2.488 0 1.235.897 2.254 2.074 2.457v.043c0 3 3.926 6 6.926 6 1.157 0 2.45-.449 3.604-1.169-3.075 1.036-6.422-.692-7.322-3.844z" fill="#f6a28d"/><g fill="#08105e"><path d="m36.28 5h6.72c.553 0 1-.448 1-1s-.447-1-1-1h-6.72c-.553 0-1 .448-1 1s.447 1 1 1z"/><path d="m5 5h6.7c.553 0 1-.448 1-1s-.447-1-1-1h-6.7c-.553 0-1 .448-1 1s.447 1 1 1z"/><path d="m43 8h-5.04c-.553 0-1 .448-1 1s.447 1 1 1h5.04c.553 0 1-.448 1-1s-.447-1-1-1z"/><path d="m5 10h5.04c.553 0 1-.448 1-1s-.447-1-1-1h-5.04c-.553 0-1 .448-1 1s.447 1 1 1z"/><path d="m43 13h-5.71c-.553 0-1 .448-1 1s.447 1 1 1h5.71c.553 0 1-.448 1-1s-.447-1-1-1z"/><path d="m5 15h5.71c.553 0 1-.448 1-1s-.447-1-1-1h-5.71c-.553 0-1 .448-1 1s.447 1 1 1z"/><path d="m43 18h-6.18c-.553 0-1 .448-1 1s.447 1 1 1h6.18c.553 0 1-.448 1-1s-.447-1-1-1z"/><path d="m5 20h6.18c.553 0 1-.448 1-1s-.447-1-1-1h-6.18c-.553 0-1 .448-1 1s.447 1 1 1z"/><path d="m43 23h-4.23c-.553 0-1 .448-1 1s.447 1 1 1h4.23c.553 0 1-.447 1-1s-.447-1-1-1z"/><path d="m5 25h4.23c.553 0 1-.447 1-1s-.447-1-1-1h-4.23c-.553 0-1 .448-1 1s.447 1 1 1z"/><path d="m42.65 31.96c-.55-2.33-2.22-4.19-4.48-4.99l-8.124-2.869c.933-.99 1.612-2.158 1.816-3.381 1.274-.535 2.138-1.787 2.138-3.219 0-.516-.121-1.001-.322-1.442l1.102-4.399c.39-1.53.26-3.19-.37-4.69l-.29-.66c-.87-2.02-2.77-3.36-4.94-3.51-1.69-1.51-3.94-2.14-6.31-1.62l-3.89.91c-2.27.51-4.18 2.1-5.12 4.26l-.27.63c-.63 1.49-.76 3.15-.37 4.67l1.102 4.409c-.201.441-.322.926-.322 1.442 0 1.43.86 2.68 2.131 3.216.196 1.222.876 2.393 1.816 3.387l-8.117 2.867c-2.26.8-3.93 2.66-4.48 4.99l-1.27 5.36c-.21.9 0 1.83.58 2.55.38.48.89.806 1.456.981l-.066.489c-.19 1.43.24 2.87 1.19 3.96.95 1.08 2.32 1.7 3.76 1.7h26c1.44 0 2.81-.62 3.76-1.7.95-1.09 1.38-2.53 1.19-3.99l-.073-.456c.57-.174 1.085-.502 1.473-.984.57-.72.78-1.65.57-2.56l-1.27-5.35zm-21.15-5.468c.842.325 1.698.508 2.5.508s1.658-.183 2.5-.508v1.008c0 1.38-1.12 2.5-2.5 2.5s-2.5-1.12-2.5-2.5zm-6.07-18.722.27-.63c.68-1.57 2.07-2.73 3.73-3.1l3.88-.91c1.78-.39 3.52.13 4.75 1.36.19.19.44.29.71.29 1.53 0 2.91.91 3.51 2.32l.29.66c.46 1.09.55 2.29.27 3.41l-.8 3.194c-.168-.082-.343-.151-.525-.206-.079-.573-.168-1.137-.266-1.682-.256-1.435-1.498-2.476-2.954-2.476h-8.59c-1.456 0-2.698 1.041-2.954 2.475-.098.546-.187 1.109-.266 1.683-.182.055-.357.124-.525.206l-.8-3.194c-.28-1.12-.19-2.32.27-3.4zm1.814 11.202c-.721-.125-1.244-.744-1.244-1.472 0-.798.628-1.452 1.431-1.489.487-.023.888-.395.946-.879.095-.79.21-1.564.343-2.305.086-.479.5-.827.985-.827h8.59c.485 0 .899.348.985.828.133.74.248 1.515.343 2.304.059.484.459.856.946.879.803.038 1.431.691 1.431 1.489 0 .728-.523 1.347-1.244 1.472-.479.083-.829.542-.829 1.028 0 2.414-3.479 5-5.927 5s-5.927-2.586-5.926-5.043c0-.487-.351-.903-.83-.985zm-9.214 22.628.082-.6h1.888v2.5c0 .502.107.978.298 1.41-.593-.144-1.137-.461-1.548-.93-.57-.65-.83-1.52-.72-2.38zm3.97 1.9v-3c0-.83.67-1.5 1.5-1.5s1.5.67 1.5 1.5v3c0 .83-.67 1.5-1.5 1.5s-1.5-.67-1.5-1.5zm24 0c0 .83-.67 1.5-1.5 1.5s-1.5-.67-1.5-1.5v-3c0-.83.67-1.5 1.5-1.5s1.5.67 1.5 1.5zm-3-6.149c-1.178.564-2 1.758-2 3.149v3c0 .538.13 1.044.349 1.5h-14.697c.218-.456.349-.962.349-1.5v-3c0-1.391-.822-2.585-2-3.149v-1.351h18v1.351zm6.25 6.629c-.411.469-.955.786-1.548.93.191-.432.298-.908.298-1.41v-2.5h1.87l.1.6c.11.86-.15 1.73-.72 2.38zm2.53-5.36c-.19.24-.48.38-.78.38h-3.351c-.495-1.033-1.476-1.779-2.649-1.949v-1.051c0-1.1-.9-2-2-2h-18c-1.1 0-2 .9-2 2v1.051c-1.174.17-2.154.916-2.649 1.949h-3.351c-.3 0-.59-.14-.78-.38s-.26-.55-.19-.85l1.27-5.35c.39-1.66 1.59-3 3.2-3.57l9-3.179v1.829c0 2.48 2.02 4.5 4.5 4.5s4.5-2.02 4.5-4.5v-1.829l9 3.179c1.62.57 2.81 1.91 3.21 3.57l1.26 5.34c.07.31 0 .62-.19.86z"/><path d="m22.108 16.75c.551.083 1.053-.301 1.132-.848.029-.209.147-.398.324-.52.124-.086.331-.177.615-.11.264.06.489.286.549.545.096.431-.142.734-.372.861-.856.471-1.367 1.299-1.367 2.213v.358c0 .552.447 1 1 1s1-.448 1-1v-.358c0-.259.254-.418.334-.462 1.085-.6 1.631-1.825 1.355-3.053-.231-1.017-1.037-1.823-2.055-2.055-.771-.175-1.551-.028-2.192.412-.636.437-1.062 1.124-1.172 1.884-.078.547.302 1.054.849 1.132z"/><circle cx="24" cy="22.25" r="1"/></g></svg>